<?xml version="1.0" encoding="utf-8"?>
<!-- Generator: Adobe Illustrator 18.1.1, SVG Export Plug-In . SVG Version: 6.00 Build 0)  -->
<svg version="1.1" id="Layer_1" xmlns="http://www.w3.org/2000/svg" xmlns:xlink="http://www.w3.org/1999/xlink" x="0px" y="0px" width="335px" height="67px"
	 viewBox="0 0 335 67" enable-background="new 0 0 335 67" xml:space="preserve">
<g>
	<g>
		<rect x="13.9" y="18.7" fill="#3b2064" width="71.9" height="1.7"/>
		<rect x="81.3" y="22.6" fill="#3b2064" width="4.5" height="1.7"/>
		<rect x="13.9" y="22.6" fill="#3b2064" width="4.5" height="1.7"/>
		<rect x="19.8" y="22.6" fill="#3b2064" width="14" height="1.7"/>
		<rect x="35.2" y="22.6" fill="#3b2064" width="14" height="1.7"/>
		<rect x="50.7" y="22.6" fill="#3b2064" width="14" height="1.7"/>
		<rect x="66.1" y="22.6" fill="#3b2064" width="14" height="1.7"/>
		<polygon fill="#3b2064" points="11.1,52.4 0,63.1 0,3.9 99.8,3.9 99.8,63.1 88.6,52.4 88.6,15.7 11.1,15.7 		"/>
	</g>
	<g>
		<path fill="#3b2064" d="M128.1,51.6l-2.7,10.9c-0.1,0.3-0.3,0.4-0.7,0.4h-1.9c-0.4,0-0.6-0.1-0.7-0.4l-2.1-8.5
			c-0.1-0.3-0.2-0.7-0.3-1.3h-0.4l-0.3,1.3l-2.1,8.5c-0.1,0.3-0.3,0.4-0.7,0.4h-1.9c-0.2,0-0.3,0-0.4-0.1c-0.1-0.1-0.2-0.2-0.2-0.3
			l-2.7-10.9h1.8l2.1,8.8c0,0.1,0.1,0.6,0.3,1.4h0.4c0.1-0.5,0.2-1,0.3-1.4l2.1-8.3c0.1-0.3,0.3-0.5,0.7-0.5h1.8
			c0.3,0,0.6,0.2,0.7,0.5l2.1,8.3c0.1,0.5,0.2,1,0.3,1.4h0.5c0.1-0.7,0.2-1.1,0.2-1.4l2.1-8.8H128.1z"/>
		<path fill="#3b2064" d="M140.4,51.6v11.3h-1.7v-5.4h-6.1v5.4H131V51.6h1.7v4.6h6.1v-4.6H140.4z"/>
		<path fill="#3b2064" d="M152.2,61.7l0.1,1.1c-1.2,0.1-3.1,0.1-5.7,0.1c-0.8,0-1.4-0.2-1.9-0.5c-0.5-0.4-0.7-0.8-0.7-1.4v-7.4
			c0-0.6,0.2-1.1,0.7-1.4c0.5-0.4,1.1-0.5,1.9-0.5c2.6,0,4.5,0,5.7,0.1l-0.1,1.1h-5.3c-0.8,0-1.2,0.4-1.2,1.1v2.5h5.7v1.2h-5.7v3.1
			c0,0.7,0.4,1.1,1.2,1.1H152.2z"/>
		<path fill="#3b2064" d="M164.7,62.9h-1.8l-1.2-3.5c-0.2-0.4-0.4-0.7-0.7-0.9c-0.3-0.2-0.6-0.3-1.1-0.3c-0.4,0-1,0-1.6,0
			s-1.1,0-1.3,0v4.7h-1.7V51.6c1.1-0.1,2.6-0.1,4.6-0.1c1.6,0,2.7,0.2,3.3,0.7c0.6,0.5,1,1.3,1,2.6c0,0.9-0.2,1.6-0.6,2.1
			c-0.4,0.5-1,0.7-1.9,0.8v0.1c0.4,0.1,0.7,0.3,1,0.5c0.3,0.3,0.5,0.6,0.7,1.1L164.7,62.9z M157,57h2.9c1,0,1.7-0.2,2.1-0.5
			c0.4-0.3,0.6-0.9,0.6-1.7c0-0.8-0.2-1.4-0.6-1.7c-0.4-0.3-1.1-0.4-2.1-0.4c-1.4,0-2.4,0-2.9,0V57z"/>
		<path fill="#3b2064" d="M175.6,61.7l0.1,1.1c-1.2,0.1-3.1,0.1-5.7,0.1c-0.8,0-1.4-0.2-1.9-0.5c-0.5-0.4-0.7-0.8-0.7-1.4v-7.4
			c0-0.6,0.2-1.1,0.7-1.4c0.5-0.4,1.1-0.5,1.9-0.5c2.6,0,4.5,0,5.7,0.1l-0.1,1.1h-5.3c-0.8,0-1.2,0.4-1.2,1.1v2.5h5.7v1.2h-5.7v3.1
			c0,0.7,0.4,1.1,1.2,1.1H175.6z"/>
		<path fill="#3b2064" d="M185.4,62.9h-1.7V51.6h1.7V62.9z"/>
		<path fill="#3b2064" d="M189.1,62.9V51.6c1.7-0.1,3.2-0.1,4.7-0.1c1.9,0,3.2,0.4,4,1.3c0.8,0.8,1.2,2.4,1.2,4.5
			c0,2.2-0.4,3.7-1.2,4.5c-0.8,0.8-2.1,1.3-4,1.3C192.3,63.1,190.8,63,189.1,62.9z M190.8,52.8v9c1.2,0,2.2,0,3,0
			c1.3,0,2.1-0.3,2.6-1c0.5-0.7,0.7-1.8,0.7-3.5c0-1.7-0.2-2.9-0.7-3.6c-0.5-0.7-1.4-1-2.6-1C193,52.7,192,52.7,190.8,52.8z"/>
		<path fill="#3b2064" d="M210.4,61.7l0.1,1.1c-1.2,0.1-3.1,0.1-5.7,0.1c-0.8,0-1.4-0.2-1.9-0.5c-0.5-0.4-0.7-0.8-0.7-1.4v-7.4
			c0-0.6,0.2-1.1,0.7-1.4c0.5-0.4,1.1-0.5,1.9-0.5c2.6,0,4.5,0,5.7,0.1l-0.1,1.1H205c-0.8,0-1.2,0.4-1.2,1.1v2.5h5.7v1.2h-5.7v3.1
			c0,0.7,0.4,1.1,1.2,1.1H210.4z"/>
		<path fill="#3b2064" d="M221.2,59.4h-5.4l-1.3,3.5h-1.7L217,52c0.1-0.3,0.3-0.4,0.6-0.4h1.8c0.3,0,0.6,0.1,0.6,0.4l4.3,10.9h-1.7
			L221.2,59.4z M220.8,58.1l-1.7-4.5c-0.1-0.3-0.2-0.6-0.3-0.9h-0.5l-0.3,0.9l-1.7,4.5H220.8z"/>
		<path fill="#3b2064" d="M231.9,58.1l-2.7-0.6c-0.9-0.2-1.6-0.5-2-1.1c-0.4-0.5-0.6-1.2-0.6-2.1c0-0.7,0.1-1.2,0.2-1.6
			c0.2-0.4,0.4-0.7,0.8-0.9c0.4-0.2,0.8-0.3,1.3-0.4c0.5-0.1,1.1-0.1,1.9-0.1c1.6,0,2.9,0.1,3.9,0.3l-0.1,1
			c-1.2-0.1-2.5-0.1-3.7-0.1c-0.6,0-1,0-1.2,0c-0.3,0-0.5,0.1-0.8,0.2c-0.3,0.1-0.4,0.3-0.5,0.5c-0.1,0.2-0.1,0.6-0.1,1
			c0,0.6,0.1,1,0.4,1.3c0.2,0.3,0.7,0.4,1.3,0.6l2.7,0.6c1,0.2,1.7,0.6,2.1,1.1c0.4,0.5,0.6,1.2,0.6,2.1c0,1.2-0.3,2.1-1,2.5
			c-0.7,0.4-1.8,0.6-3.4,0.6c-1.4,0-2.8-0.1-4.1-0.3l0.1-1.1c2.1,0.1,3.5,0.1,4,0.1c1,0,1.8-0.1,2.1-0.3c0.4-0.2,0.5-0.7,0.5-1.5
			c0-0.6-0.1-1.1-0.4-1.3C232.9,58.5,232.5,58.3,231.9,58.1z"/>
		<path fill="#3b2064" d="M251.1,62.9l-0.2-1.2c-1.1,0.9-2.4,1.4-4,1.4c-1.5,0-2.5-0.5-3.2-1.4c-0.7-0.9-1-2.4-1-4.5
			c0-2.2,0.4-3.7,1.2-4.6c0.8-0.8,2.2-1.3,4.3-1.3c1.4,0,2.6,0.1,3.7,0.3l-0.2,1.1c-1.1-0.1-2.2-0.1-3.4-0.1c-1,0-1.8,0.1-2.3,0.3
			c-0.5,0.2-0.9,0.7-1.2,1.3c-0.3,0.7-0.4,1.7-0.4,3c0,1.7,0.2,2.8,0.6,3.5c0.4,0.7,1.2,1,2.2,1c1,0,2.1-0.4,3.3-1.1v-4.4h1.6v6.5
			H251.1z"/>
		<path fill="#3b2064" d="M263.8,61.7l0.1,1.1c-1.2,0.1-3.1,0.1-5.7,0.1c-0.8,0-1.4-0.2-1.9-0.5c-0.5-0.4-0.7-0.8-0.7-1.4v-7.4
			c0-0.6,0.2-1.1,0.7-1.4c0.5-0.4,1.1-0.5,1.9-0.5c2.6,0,4.5,0,5.7,0.1l-0.1,1.1h-5.3c-0.8,0-1.2,0.4-1.2,1.1v2.5h5.7v1.2h-5.7v3.1
			c0,0.7,0.4,1.1,1.2,1.1H263.8z"/>
		<path fill="#3b2064" d="M276.6,52.9h-4.3v10h-1.7v-10h-4.3v-1.3h10.2V52.9z"/>
		<path fill="#3b2064" d="M290.8,57L290.8,57c1,0.1,1.6,0.4,2.1,0.9c0.4,0.5,0.6,1.2,0.6,2.2c0,1.1-0.3,1.9-1,2.3
			c-0.7,0.4-1.8,0.6-3.4,0.6c-2.3,0-4.1,0-5.3-0.1V51.6c1.1-0.1,2.6-0.1,4.7-0.1c1.7,0,2.9,0.2,3.5,0.6c0.7,0.4,1,1.2,1,2.3
			c0,0.8-0.2,1.4-0.5,1.9C292.2,56.7,291.6,57,290.8,57z M286.2,56.3h2.4c0.8,0,1.4-0.1,1.7-0.3c0.3-0.2,0.5-0.7,0.5-1.3
			c0-0.6-0.2-1-0.5-1.2c-0.3-0.2-0.9-0.3-1.8-0.3h-2.2V56.3z M286.2,61.4l2.5,0c0.9,0,1.5-0.1,1.9-0.3c0.3-0.2,0.5-0.7,0.5-1.3
			c0-0.7-0.2-1.2-0.5-1.5c-0.3-0.3-1-0.4-1.9-0.4h-2.4V61.4z"/>
		<path fill="#3b2064" d="M306.3,51.6v6.9c0,1.7-0.4,2.9-1.1,3.6c-0.7,0.7-2,1-3.8,1c-1.9,0-3.2-0.3-4-1c-0.8-0.7-1.2-1.9-1.2-3.6
			v-6.9h2.4v6.9c0,1.1,0.2,1.8,0.6,2.3c0.4,0.4,1.1,0.6,2.1,0.6c1,0,1.7-0.2,2.1-0.6c0.4-0.4,0.6-1.2,0.6-2.3v-6.9H306.3z"/>
		<path fill="#3b2064" d="M312,62.9h-2.4V51.6h2.4V62.9z"/>
		<path fill="#3b2064" d="M317.8,51.6v8.7c0,0.4,0.1,0.6,0.2,0.7c0.2,0.1,0.5,0.2,0.9,0.2h4.6l0.1,1.6c-1.3,0.1-3,0.1-5.3,0.1
			c-2,0-3-0.8-3-2.3v-9H317.8z"/>
		<path fill="#3b2064" d="M334,53.4h-4.1v9.5h-2.4v-9.5h-4v-1.8H334V53.4z"/>
		<rect x="110.9" y="40" fill="#3b2064" width="175.9" height="1.1"/>
		<rect x="308.7" y="40" fill="#3b2064" width="25.3" height="1.1"/>
		<path fill="#3b2064" d="M234.9,15.3c0-0.6-0.1-1-0.4-1.2c-0.2-0.2-0.6-0.4-1.2-0.4h-0.1c-1.8,0-3.7,0-5.5,0c-0.9,0-1.8,0-2.8,0h-7
			c-1.4,0-2.1,0-2.4,0.3c-0.3,0.3-0.3,1.1-0.3,2.5v1.7h13.4c0.9,0,1.7,0.7,1.7,1.7c0,0.9-0.7,1.7-1.7,1.7h-12c-0.4,0-0.8,0.2-1,0.4
			c-0.3,0.3-0.4,0.6-0.4,1v3.6c0,1.6,0,3.2,0,4.7c0,0.6,0.1,1,0.4,1.3c0.2,0.2,0.6,0.4,1.2,0.4c2.8,0,5.5,0,8.2,0c2.8,0,5.6,0,8.4,0
			l0,0.2V33c0.5,0,0.9-0.1,1.1-0.3c0.2-0.2,0.4-0.6,0.4-1.2C234.9,25,234.9,20,234.9,15.3z M228.6,28.9h-7.8c-0.9,0-1.7-0.7-1.7-1.7
			c0-0.9,0.7-1.7,1.7-1.7h7.8c0.9,0,1.7,0.7,1.7,1.7C230.2,28.2,229.5,28.9,228.6,28.9z"/>
		<path fill="#3b2064" d="M178.2,15.4c0-0.6-0.1-1-0.4-1.3c-0.3-0.3-0.7-0.4-1.3-0.4c-5.5,0-10.9,0-16.3,0c-0.6,0-1,0.1-1.3,0.4
			c-0.2,0.3-0.4,0.7-0.4,1.3c0,3.4,0,6.7,0,10.1v5.8c0,1.5,0.3,1.8,1.8,1.8h12.4c1.3,0,2,0,2.3-0.3c0.3-0.3,0.3-1,0.3-2.3v-1.5
			h-10.5c-0.9,0-1.7-0.7-1.7-1.7c0-0.9,0.7-1.7,1.7-1.7h13.3v-1.2C178.1,21.4,178.1,18.4,178.2,15.4z M172.4,21.6l-9.4,0V20
			c0-0.9,0.8-1.7,1.7-1.7h7.7c0.9,0,1.7,0.7,1.7,1.7C174.1,20.9,173.3,21.6,172.4,21.6z"/>
		<path fill="#3b2064" d="M131.7,18.1c-0.4,0.4-1.1,0.4-2.7,0.4h-3.1c-1.8,0-2.2,0.4-2.3,2.2v10.4c0,1.9-0.1,2-2,2h-2.5v-5.3
			c0-2.4,0-4.8,0-7.2c0-1.7-0.4-2-2.1-2.1h-0.5c-0.7,0-1.7,0-2.7,0c-1,0-1.7,0-2.2,0h-0.1c-0.5,0-0.9-0.1-1.2-0.4
			c-0.3-0.3-0.4-0.7-0.4-1.3v-1.4c0-0.6,0.1-1,0.4-1.2c0.2-0.2,0.6-0.4,1.2-0.4c2,0,4.8,0,7.2,0h2.5c0.8,0,1.6,0,2.5,0
			c2.2,0,4.6,0,6.5,0h0.1c1.2,0,1.6,0.4,1.6,1.6v0.1C132.1,17,132.1,17.8,131.7,18.1z"/>
		<path fill="#3b2064" d="M281.8,15.3c0-0.6-0.1-1-0.4-1.2c-0.2-0.2-0.6-0.4-1.2-0.4h-0.1c-1.8,0-3.7,0-5.5,0c-0.9,0-1.8,0-2.8,0h-7
			c-1.4,0-2.1,0-2.4,0.3c-0.3,0.3-0.3,1.1-0.3,2.5v1.7h13.4c0.9,0,1.7,0.7,1.7,1.7c0,0.9-0.7,1.7-1.7,1.7h-14.7
			c-0.4,0-0.8,0.2-1,0.4s-0.4,0.6-0.4,1v3.5c0,1.6,0,3.2,0,4.7c0,0.6,0.1,1,0.4,1.3c0.2,0.2,0.6,0.4,1.2,0.4c2.7,0,6.1,0,9.6,0
			c3.5,0,7,0,9.8,0l0,0.2V33c0.5,0,0.9-0.1,1.1-0.3c0.2-0.2,0.4-0.6,0.4-1.2C281.8,26.6,281.8,20.9,281.8,15.3z M275.5,28.9H265
			c-0.9,0-1.7-0.7-1.7-1.7c0-0.9,0.7-1.7,1.7-1.7h10.5c0.9,0,1.7,0.7,1.7,1.7C277.1,28.2,276.4,28.9,275.5,28.9z"/>
		<path fill="#3b2064" d="M154.7,31.2c0,1.7-0.2,1.8-1.8,1.9h-2.7v-1.2c0-0.2,0-0.5,0-0.8V20.7c0-2.1-0.3-2.5-2.4-2.5H142
			c-2.1,0-2.3,0.2-2.3,2.2v4.9c0,1.9,0,3.8,0,5.7c0,1.9-0.2,2.1-2.1,2.1h-0.1c-2.4,0-2.4,0-2.4-2.6V3.9h2.2c2.3,0,2.4,0.1,2.4,2.7
			c0,0.3,0,0.7,0,1.2c0,1.3,0,3.1,0,4c0,0.6,0.1,1.1,0.4,1.4c0.3,0.3,0.8,0.5,1.5,0.5c3.1,0,6.3,0,9.4,0h1.9c1.7,0,1.9,0.2,1.9,1.8
			C154.7,20.6,154.7,26,154.7,31.2z"/>
		<path fill="#3b2064" d="M211.4,22.8l0,0.1c0,2.8,0,5.7,0,8.6c0,0.6-0.1,0.9-0.4,1.2c-0.2,0.2-0.6,0.4-1.2,0.4h-0.1
			c-1,0-2.1,0-3.5,0c-0.8,0-1.6,0-2.4,0h-4.8c-1.9,0-3.9,0-5.8,0h-0.1c-0.5,0-0.9-0.1-1.2-0.4c-0.2-0.2-0.4-0.7-0.4-1.2
			c0-6.2,0-11.3,0-16c0-0.6,0.1-1,0.4-1.2c0.3-0.3,0.7-0.4,1.3-0.4c5.4,0,10.8,0,16.3,0c0.6,0,1,0.1,1.3,0.4
			c0.2,0.3,0.4,0.7,0.3,1.3v0.3l0,0.1c0,1.2,0,1.8-0.3,2.1c-0.3,0.3-1,0.3-2.2,0.3l-7.1,0c-1.1,0-2.2,0-3.3,0H198
			c-0.4,0-0.9,0.2-1.2,0.5c0,0,0,0,0,0.1c-0.3,0.3-0.4,0.7-0.4,1.1c0,0.1,0,0.1,0,0.2c0,0.1,0,0.3,0,0.4v2.2c0,1.5,0,2.9,0,4.2v0.2
			c0,0,0,0.1,0,0.2v0.1c0,0.1,0,0.2,0,0.2c0.1,0.6,0.6,1.3,1.8,1.3c0.5,0,1,0,1.5,0c0.7,0,1.4,0,2.2,0c1.3,0,2.3,0,3.3-0.1l0.2,0v0
			c0.8-0.2,1.3-0.8,1.3-1.6c0-0.8-0.6-1.5-1.4-1.6l-0.2,0c-0.5,0-1-0.1-1.6-0.1c-0.5,0-1,0-1.5,0c-0.4,0-0.9,0-1.3,0h-0.1
			c-1,0-1.2-0.1-1.3-1c-0.1-1.5-0.1-2.3,0.2-2.7c0.3-0.3,0.9-0.3,2.2-0.3h0.6c0.8,0,1.5,0,2.3,0c1.4,0,2.9,0,4.3,0l2.5,0V22.8z"/>
		<path fill="#3b2064" d="M258.3,16.8c0,0.5-0.1,0.9-0.3,1.2c-0.2,0.2-0.7,0.4-1.3,0.4c-2.6,0-5.2,0-7.8,0h-2.9
			c-2.4,0-2.7,0.3-2.7,2.6v3.3c0,3.2,0,7,0,9.5c0,1.8-0.2,2-2,2l-0.4,0l-0.4,0c-1.8,0-1.9-0.2-1.9-1.9v-20l14.6,0c1,0,2.1,0,3.1,0
			c1.6,0,1.8,0.1,1.8,1.7V16C258.3,16.3,258.3,16.5,258.3,16.8z"/>
		<path fill="#3b2064" d="M305.3,14.1h-1.4c-0.1,0-0.1,0-0.2,0c-2,0-4,0-5.9,0h-2.2l-4.7,0c-1.2,0-2.3,0-3.5,0
			c-1.5,0-1.7,0.2-1.7,1.7v5.7c0,3.3,0,6.8,0,10.2c0,0.6,0.1,1,0.4,1.3c0.2,0.2,0.6,0.4,1.2,0.4h0.1c0.7,0,2.2,0,4.3,0
			c1.7,0,3.6,0,5.1,0h2.1c0.7,0,1.2,0.2,1.5,0.5c0.3,0.3,0.5,0.8,0.4,1.4c-0.1,1.4-1.1,1.7-2,1.7h-2.9c-1.7,0-3.9,0-4,0
			c-1.3,0.1-1.4,0.2-1.4,1.9v1.4c0,0.9,0.4,1.3,1.3,1.3h12.2l0,0.2v-0.2c0.5,0,0.8-0.1,1-0.3c0.2-0.2,0.3-0.6,0.3-1.1
			c0-0.7,0-1.4,0-2.1v-1c0-2,0-3.1,0-3.8c0-0.5,0-0.9,0-1.4c0-4.1,0-8.7,0-13.8V14.1z M300.8,26.9c0,1.2-0.6,1.8-1.8,1.8
			c-1.2,0-2.3,0-3.5,0c-1.2,0-2.3,0-3.5,0c-0.5,0-1-0.2-1.2-0.4c-0.3-0.3-0.4-0.8-0.4-1.3c0-2.2,0-4.4,0-6.4c0-0.6,0.1-1,0.4-1.3
			c0.3-0.3,0.7-0.5,1.4-0.5h6.7c1.3,0,1.9,0.6,1.9,1.9C300.7,22.7,300.7,24.8,300.8,26.9z"/>
		<path fill="#3b2064" d="M331.7,15.6c0-1.6-0.2-1.8-1.8-1.8c-1,0-2.6,0-4.2,0l-11.7,0c-1.2,0-2.4,0-3.6,0c-1.1,0-1.6,0.4-1.6,1.3
			v16.6c0,0.9,0.4,1.3,1.3,1.3h14.7c0.5,0,0.8-0.1,1-0.3c0.2-0.2,0.3-0.6,0.3-1.1v-0.9c0-1.6-0.2-1.8-1.8-1.8h-5.1c-1,0-2.1,0-3.6,0
			h-0.6c-0.9,0-1.7-0.7-1.7-1.7c0-0.9,0.7-1.7,1.7-1.7h0.6c2.1,0,7.1,0,9.3,0h4.9c1.6,0,1.8-0.2,1.8-1.8
			C331.7,20.9,331.7,18.5,331.7,15.6z M326.7,20c0,0.9-0.7,1.7-1.7,1.7h-9.7c-0.9,0-1.7-0.7-1.7-1.7c0-0.9,0.7-1.7,1.7-1.7h11.4V20z
			"/>
	</g>
</g>
</svg>
